<svg width="20" height="20" viewBox="0 0 20 20" fill="none" xmlns="http://www.w3.org/2000/svg">
<path d="M8.54168 13.5417C8.45776 13.5388 8.37526 13.5189 8.29935 13.4831C8.2234 13.4472 8.15558 13.3963 8.10002 13.3333C7.98298 13.2162 7.91724 13.0573 7.91724 12.8917C7.91724 12.7261 7.98298 12.5672 8.10002 12.45L10.6 9.95L8.10002 7.45001C8.05059 7.33 8.03974 7.19759 8.06899 7.07113C8.09823 6.94467 8.16612 6.83046 8.26323 6.74435C8.36034 6.65823 8.48184 6.60448 8.61093 6.59056C8.73993 6.57665 8.87009 6.60325 8.98334 6.66668L11.9 9.58333C12.0171 9.70058 12.0828 9.85941 12.0828 10.025C12.0828 10.1907 12.0171 10.3495 11.9 10.4667L8.98334 13.3333C8.92776 13.3963 8.85993 13.4472 8.78401 13.4831C8.70809 13.5189 8.62559 13.5388 8.54168 13.5417Z" fill="#FE9920"/>
</svg>
