<svg width="30" height="30" viewBox="0 0 30 30" fill="none" xmlns="http://www.w3.org/2000/svg">
<path d="M17.1875 9.68751C17.3134 9.69176 17.4371 9.72164 17.551 9.77539C17.6649 9.82914 17.7666 9.90551 17.85 10C18.0255 10.1758 18.1242 10.414 18.1242 10.6625C18.1242 10.9109 18.0255 11.1493 17.85 11.325L14.1 15.075L17.85 18.825C17.9241 19.005 17.9404 19.2036 17.8965 19.3933C17.8527 19.583 17.7508 19.7543 17.6052 19.8835C17.4595 20.0127 17.2772 20.0933 17.0836 20.1142C16.8901 20.135 16.6949 20.0951 16.525 20L12.15 15.625C11.9744 15.4491 11.8757 15.2109 11.8757 14.9625C11.8757 14.714 11.9744 14.4758 12.15 14.3L16.525 10C16.6084 9.90551 16.7101 9.82914 16.824 9.77539C16.9379 9.72164 17.0616 9.69176 17.1875 9.68751Z" fill="#FE9920"/>
</svg>
