<svg width="156" height="34" viewBox="0 0 156 34" fill="none" xmlns="http://www.w3.org/2000/svg">
<g clip-path="url(#clip0_12_3)">
<path opacity="0.963" fill-rule="evenodd" clip-rule="evenodd" d="M-0.130005 -0.134949C1.95 -0.134949 4.03 -0.134949 6.11 -0.134949C6.11 9.39944 6.11 18.9338 6.11 28.4682C9.57665 28.4682 13.0433 28.4682 16.51 28.4682C16.51 30.1771 16.51 31.8863 16.51 33.5952C10.9633 33.5952 5.41665 33.5952 -0.130005 33.5952C-0.130005 22.3518 -0.130005 11.1084 -0.130005 -0.134949Z" fill="white"/>
<path opacity="0.922" fill-rule="evenodd" clip-rule="evenodd" d="M10.01 -0.134949C12.1767 -0.134949 14.3434 -0.134949 16.51 -0.134949C16.51 8.05023 16.51 16.2354 16.51 24.4206C14.3434 24.4206 12.1767 24.4206 10.01 24.4206C10.01 16.2354 10.01 8.05023 10.01 -0.134949Z" fill="white"/>
<path opacity="0.964" fill-rule="evenodd" clip-rule="evenodd" d="M19.37 -0.134949C21.45 -0.134949 23.53 -0.134949 25.61 -0.134949C25.61 9.39944 25.61 18.9338 25.61 28.4682C29.0766 28.4682 32.5434 28.4682 36.01 28.4682C36.01 30.1771 36.01 31.8863 36.01 33.5952C30.4634 33.5952 24.9167 33.5952 19.37 33.5952C19.37 22.3518 19.37 11.1084 19.37 -0.134949Z" fill="white"/>
<path opacity="0.96" fill-rule="evenodd" clip-rule="evenodd" d="M29.77 -0.134949C31.85 -0.134949 33.93 -0.134949 36.01 -0.134949C36.01 8.05023 36.01 16.2354 36.01 24.4206C33.93 24.4206 31.85 24.4206 29.77 24.4206C29.77 16.2354 29.77 8.05023 29.77 -0.134949Z" fill="white"/>
<path opacity="0.956" fill-rule="evenodd" clip-rule="evenodd" d="M38.87 -0.134949C44.4166 -0.134949 49.9634 -0.134949 55.51 -0.134949C55.51 3.55289 55.51 7.2407 55.51 10.9285C53.43 10.9285 51.35 10.9285 49.27 10.9285C49.27 8.94971 49.27 6.97086 49.27 4.99203C45.8034 4.99203 42.3366 4.99203 38.87 4.99203C38.87 3.28305 38.87 1.57404 38.87 -0.134949Z" fill="white"/>
<path opacity="0.681" fill-rule="evenodd" clip-rule="evenodd" d="M58.89 -0.134949C59.2366 -0.134949 59.5834 -0.134949 59.93 -0.134949C59.93 1.93384 59.93 4.00261 59.93 6.0714C60.8834 6.0714 61.8366 6.0714 62.79 6.0714C62.79 6.34124 62.79 6.61108 62.79 6.88093C61.49 6.88093 60.19 6.88093 58.89 6.88093C58.89 4.54229 58.89 2.20368 58.89 -0.134949Z" fill="white"/>
<path opacity="0.657" fill-rule="evenodd" clip-rule="evenodd" d="M66.69 -0.134949C67.0366 -0.134949 67.3834 -0.134949 67.73 -0.134949C68.3173 2.14366 69.0107 4.39234 69.81 6.61108C69.4184 6.94763 69.0284 6.94763 68.64 6.61108C68.386 6.00664 68.256 5.37702 68.25 4.72219C67.5514 4.67791 66.8579 4.7229 66.17 4.85711C65.9035 5.41609 65.6869 6.00073 65.52 6.61108C65.1591 6.89539 64.7691 6.94037 64.35 6.746C65.1565 4.45937 65.9365 2.16573 66.69 -0.134949ZM66.95 1.4841C67.3587 2.21682 67.6187 3.02635 67.73 3.91267C67.2966 3.91267 66.8634 3.91267 66.43 3.91267C66.6034 3.10315 66.7766 2.29362 66.95 1.4841Z" fill="white"/>
<path opacity="0.683" fill-rule="evenodd" clip-rule="evenodd" d="M71.89 -0.134949C72.8434 -0.134949 73.7966 -0.134949 74.75 -0.134949C76.108 0.805977 76.2814 1.93031 75.27 3.23807C76.6519 4.39463 76.6519 5.56394 75.27 6.746C74.1466 6.88065 73.02 6.92564 71.89 6.88092C71.89 4.54229 71.89 2.20368 71.89 -0.134949ZM72.93 0.674575C73.8655 0.57597 74.5589 0.935757 75.01 1.75394C74.6036 2.66951 73.9105 3.02929 72.93 2.83331C72.93 2.11373 72.93 1.39415 72.93 0.674575ZM72.93 3.64283C74.0062 3.48163 74.7862 3.88639 75.27 4.85711C74.8491 5.92736 74.0691 6.33212 72.93 6.0714C72.93 5.26188 72.93 4.45235 72.93 3.64283Z" fill="white"/>
<path opacity="0.673" fill-rule="evenodd" clip-rule="evenodd" d="M80.21 -0.134949C81.1634 -0.134949 82.1166 -0.134949 83.07 -0.134949C85.1339 2.13241 85.1339 4.42607 83.07 6.746C81.1229 7.48221 79.6929 6.89755 78.78 4.99203C78.2514 2.92991 78.728 1.22091 80.21 -0.134949ZM80.99 0.674575C82.7715 0.580487 83.6381 1.47996 83.59 3.37299C83.3994 5.51577 82.3594 6.28031 80.47 5.66664C80.1577 5.42311 79.9409 5.10828 79.82 4.72219C79.6466 3.82273 79.6466 2.92324 79.82 2.02378C80.0865 1.43365 80.4765 0.983916 80.99 0.674575Z" fill="white"/>
<path opacity="0.653" fill-rule="evenodd" clip-rule="evenodd" d="M86.97 -0.134949C87.9234 -0.134949 88.8766 -0.134949 89.83 -0.134949C91.0288 0.440955 91.4188 1.43037 91 2.83331C90.8344 3.31986 90.5312 3.67964 90.09 3.91267C90.61 4.81213 91.13 5.71162 91.65 6.61108C91.2166 6.97086 90.7834 6.97086 90.35 6.61108C89.908 5.92604 89.518 5.20648 89.18 4.45235C88.8274 4.21484 88.4374 4.1249 88.01 4.18251C88.01 5.08197 88.01 5.98146 88.01 6.88093C87.6634 6.88093 87.3166 6.88093 86.97 6.88093C86.97 4.54229 86.97 2.20368 86.97 -0.134949ZM88.01 0.674575C88.641 0.680792 89.2476 0.815713 89.83 1.07934C90.3016 2.70554 89.695 3.38014 88.01 3.10315C88.01 2.29362 88.01 1.4841 88.01 0.674575Z" fill="white"/>
<path opacity="0.643" fill-rule="evenodd" clip-rule="evenodd" d="M95.29 -0.134949C95.7234 -0.134949 96.1565 -0.134949 96.59 -0.134949C97.1027 2.2194 97.7961 4.51304 98.67 6.746C98.2451 6.87917 97.8117 6.92415 97.37 6.88093C97.4035 5.03888 96.5367 4.31932 94.77 4.72219C94.7034 5.37985 94.53 6.0095 94.25 6.61108C93.9034 6.97086 93.5565 6.97086 93.21 6.61108C94.0095 4.39215 94.7026 2.14346 95.29 -0.134949ZM95.81 1.75394C96.1142 2.33416 96.3742 2.9638 96.59 3.64283C96.0905 3.95072 95.5705 3.9957 95.03 3.77775C95.389 3.13995 95.649 2.46534 95.81 1.75394Z" fill="white"/>
<path opacity="0.733" fill-rule="evenodd" clip-rule="evenodd" d="M99.71 -0.134949C101.357 -0.134949 103.003 -0.134949 104.65 -0.134949C104.65 0.22484 104.65 0.584629 104.65 0.944417C103.957 0.944417 103.263 0.944417 102.57 0.944417C102.57 2.92324 102.57 4.9021 102.57 6.88093C102.31 6.88093 102.05 6.88093 101.79 6.88093C101.79 4.9021 101.79 2.92324 101.79 0.944417C101.097 0.944417 100.403 0.944417 99.71 0.944417C99.71 0.584629 99.71 0.22484 99.71 -0.134949Z" fill="white"/>
<path opacity="0.668" fill-rule="evenodd" clip-rule="evenodd" d="M108.55 -0.134949C109.417 -0.134949 110.283 -0.134949 111.15 -0.134949C112.619 1.11382 113.096 2.73287 112.58 4.72219C111.601 7.07019 109.997 7.65483 107.77 6.47616C106.673 4.85711 106.456 3.10315 107.12 1.21426C107.57 0.701044 108.046 0.251307 108.55 -0.134949ZM109.07 0.674575C110.34 0.500746 111.163 1.04043 111.54 2.29362C111.82 3.52739 111.603 4.65174 110.89 5.66664C109.45 6.42573 108.453 6.02097 107.9 4.45235C107.497 2.88903 107.887 1.62976 109.07 0.674575Z" fill="white"/>
<path opacity="0.71" fill-rule="evenodd" clip-rule="evenodd" d="M115.31 -0.134949C116.263 -0.134949 117.217 -0.134949 118.17 -0.134949C119.9 1.2116 119.9 2.60578 118.17 4.04759C118.844 4.79403 119.364 5.64851 119.73 6.61108C119.412 6.91166 119.065 6.95662 118.69 6.74601C118.17 5.93648 117.65 5.12696 117.13 4.31743C116.794 4.18521 116.447 4.14023 116.09 4.18251C116.09 5.08197 116.09 5.98146 116.09 6.88093C115.83 6.88093 115.57 6.88093 115.31 6.88093C115.31 4.54229 115.31 2.20368 115.31 -0.134949ZM116.09 0.674575C117.197 0.573188 117.977 1.02292 118.43 2.02378C117.932 2.97033 117.152 3.33014 116.09 3.10315C116.09 2.29362 116.09 1.4841 116.09 0.674575Z" fill="white"/>
<path opacity="0.655" fill-rule="evenodd" clip-rule="evenodd" d="M121.81 -0.134949C122.157 -0.134949 122.503 -0.134949 122.85 -0.134949C122.85 2.20368 122.85 4.54229 122.85 6.88093C122.503 6.88093 122.157 6.88093 121.81 6.88093C121.81 4.54229 121.81 2.20368 121.81 -0.134949Z" fill="white"/>
<path opacity="0.673" fill-rule="evenodd" clip-rule="evenodd" d="M127.01 -0.134949C127.963 -0.134949 128.917 -0.134949 129.87 -0.134949C131.934 2.13241 131.934 4.42607 129.87 6.746C127.923 7.48221 126.493 6.89755 125.58 4.99203C125.051 2.92991 125.528 1.22091 127.01 -0.134949ZM127.79 0.674575C129.571 0.580487 130.438 1.47996 130.39 3.37299C130.199 5.51577 129.159 6.28031 127.27 5.66664C126.958 5.42311 126.741 5.10828 126.62 4.72219C126.447 3.82273 126.447 2.92324 126.62 2.02378C126.886 1.43365 127.276 0.983916 127.79 0.674575Z" fill="white"/>
<path opacity="0.657" fill-rule="evenodd" clip-rule="evenodd" d="M138.71 -0.134949C139.663 -0.134949 140.617 -0.134949 141.57 -0.134949C142.768 0.478026 143.158 1.46744 142.74 2.83331C142.002 3.82576 141.005 4.27547 139.75 4.18251C139.75 5.08197 139.75 5.98146 139.75 6.88093C139.403 6.88093 139.057 6.88093 138.71 6.88093C138.71 4.54229 138.71 2.20368 138.71 -0.134949ZM139.75 0.674575C140.381 0.680792 140.988 0.815713 141.57 1.07934C142.042 2.70554 141.435 3.38014 139.75 3.10315C139.75 2.29362 139.75 1.4841 139.75 0.674575Z" fill="white"/>
<path opacity="0.669" fill-rule="evenodd" clip-rule="evenodd" d="M145.21 -0.134949C146.423 -0.134949 147.637 -0.134949 148.85 -0.134949C148.85 0.22484 148.85 0.584629 148.85 0.944417C147.983 0.944417 147.117 0.944417 146.25 0.944417C146.25 1.57405 146.25 2.20368 146.25 2.83331C146.943 2.83331 147.637 2.83331 148.33 2.83331C148.33 3.10315 148.33 3.37299 148.33 3.64283C147.637 3.64283 146.943 3.64283 146.25 3.64283C146.25 4.45235 146.25 5.26188 146.25 6.0714C147.203 6.0714 148.157 6.0714 149.11 6.0714C149.11 6.34124 149.11 6.61108 149.11 6.88093C147.81 6.88093 146.51 6.88093 145.21 6.88093C145.21 4.54229 145.21 2.20368 145.21 -0.134949Z" fill="white"/>
<path opacity="0.657" fill-rule="evenodd" clip-rule="evenodd" d="M151.45 -0.134949C152.403 -0.134949 153.357 -0.134949 154.31 -0.134949C155.943 1.11476 156.03 2.50894 154.57 4.04759C154.862 4.84066 155.295 5.51526 155.87 6.0714C155.87 6.34124 155.87 6.61108 155.87 6.88093C155.513 6.92321 155.166 6.87823 154.83 6.746C154.342 6.13851 153.952 5.46391 153.66 4.72219C153.371 4.3075 152.981 4.1276 152.49 4.18251C152.49 5.08197 152.49 5.98146 152.49 6.88093C152.143 6.88093 151.797 6.88093 151.45 6.88093C151.45 4.54229 151.45 2.20368 151.45 -0.134949ZM152.49 0.674575C153.441 0.654542 154.134 1.0593 154.57 1.88886C154.238 2.91639 153.545 3.32115 152.49 3.10315C152.49 2.29362 152.49 1.4841 152.49 0.674575Z" fill="white"/>
<path opacity="0.518" fill-rule="evenodd" clip-rule="evenodd" d="M66.4299 8.5C66.7765 8.5 67.1234 8.5 67.4699 8.5C67.4699 9.21959 67.4699 9.93914 67.4699 10.6587C67.2099 10.6587 66.9499 10.6587 66.6899 10.6587C66.536 9.9498 66.4494 9.23024 66.4299 8.5Z" fill="white"/>
<path opacity="0.664" fill-rule="evenodd" clip-rule="evenodd" d="M95.29 8.49997C98.4462 8.47274 99.703 10.0918 99.06 13.3571C98.1337 15.8109 96.5302 16.4855 94.25 15.3809C92.9324 13.3829 92.8889 11.3591 94.12 9.3095C94.5496 9.0668 94.9396 8.79696 95.29 8.49997ZM95.29 9.57934C96.7219 9.20299 97.6319 9.74267 98.02 11.1984C98.4659 13.1061 97.8159 14.3653 96.07 14.9762C95.1359 14.8612 94.5724 14.3216 94.38 13.3571C94.0181 11.8981 94.3213 10.6389 95.29 9.57934Z" fill="white"/>
<path opacity="0.643" fill-rule="evenodd" clip-rule="evenodd" d="M144.43 8.5C145.477 8.33361 146.344 8.64844 147.03 9.44444C146.824 10.1823 146.478 10.2722 145.99 9.71428C144.789 9.29927 143.965 9.70403 143.52 10.9286C143.228 12.2605 143.445 13.4748 144.17 14.5714C145.125 15.1341 145.992 14.9992 146.77 14.1667C147.44 14.5413 147.44 14.946 146.77 15.3809C144.888 16.3645 143.458 15.8697 142.48 13.8968C142.265 12.5235 142.352 11.1743 142.74 9.8492C143.209 9.22163 143.773 8.77191 144.43 8.5Z" fill="white"/>
<path opacity="0.681" fill-rule="evenodd" clip-rule="evenodd" d="M58.89 8.76984C59.2366 8.76984 59.5834 8.76984 59.93 8.76984C59.93 10.8386 59.93 12.9074 59.93 14.9762C60.8834 14.9762 61.8366 14.9762 62.79 14.9762C62.79 15.246 62.79 15.5159 62.79 15.7857C61.49 15.7857 60.19 15.7857 58.89 15.7857C58.89 13.4471 58.89 11.1085 58.89 8.76984Z" fill="white"/>
<path opacity="0.657" fill-rule="evenodd" clip-rule="evenodd" d="M71.63 8.76984C71.9766 8.76984 72.3234 8.76984 72.67 8.76984C72.67 11.1085 72.67 13.4471 72.67 15.7857C72.3234 15.7857 71.9766 15.7857 71.63 15.7857C71.63 13.4471 71.63 11.1085 71.63 8.76984Z" fill="white"/>
<path opacity="0.711" fill-rule="evenodd" clip-rule="evenodd" d="M76.5701 8.76984C77.0349 8.69288 77.4684 8.78282 77.8701 9.03968C78.8321 10.6237 79.7421 12.2428 80.6001 13.8968C80.7301 12.1902 80.7732 10.4812 80.7301 8.76984C80.9901 8.76984 81.2501 8.76984 81.5101 8.76984C81.5101 11.1085 81.5101 13.4471 81.5101 15.7857C81.1258 15.8564 80.7792 15.7665 80.4701 15.5159C79.6115 13.951 78.7015 12.422 77.7401 10.9286C77.6103 12.5451 77.5669 14.1642 77.6101 15.7857C77.2635 15.7857 76.9166 15.7857 76.5701 15.7857C76.5701 13.4471 76.5701 11.1085 76.5701 8.76984Z" fill="white"/>
<path opacity="0.669" fill-rule="evenodd" clip-rule="evenodd" d="M85.67 8.76984C86.97 8.76984 88.27 8.76984 89.57 8.76984C89.57 9.03968 89.57 9.30952 89.57 9.57936C88.6166 9.57936 87.6635 9.57936 86.71 9.57936C86.71 10.2989 86.71 11.0185 86.71 11.7381C87.49 11.7381 88.27 11.7381 89.05 11.7381C89.05 12.0079 89.05 12.2778 89.05 12.5476C88.27 12.5476 87.49 12.5476 86.71 12.5476C86.71 13.627 86.71 14.7063 86.71 15.7857C86.3635 15.7857 86.0166 15.7857 85.67 15.7857C85.67 13.4471 85.67 11.1085 85.67 8.76984Z" fill="white"/>
<path opacity="0.668" fill-rule="evenodd" clip-rule="evenodd" d="M103.09 8.76986C104.134 8.7252 105.174 8.77018 106.21 8.90478C106.582 9.03031 106.885 9.2552 107.12 9.57938C107.486 10.881 107.182 11.9604 106.21 12.8175C106.73 13.7169 107.25 14.6164 107.77 15.5159C107.452 15.8165 107.105 15.8614 106.73 15.6508C106.177 14.8191 105.657 13.9646 105.17 13.0873C104.861 12.8367 104.514 12.7468 104.13 12.8175C104.13 13.8069 104.13 14.7963 104.13 15.7857C103.783 15.7857 103.437 15.7857 103.09 15.7857C103.09 13.4471 103.09 11.1085 103.09 8.76986ZM104.13 9.57938C106.079 9.39152 106.599 10.1561 105.69 11.873C105.177 12.0067 104.657 12.0517 104.13 12.008C104.13 11.1984 104.13 10.3889 104.13 9.57938Z" fill="white"/>
<path opacity="0.66" fill-rule="evenodd" clip-rule="evenodd" d="M111.41 8.76986C111.794 8.69916 112.141 8.7891 112.45 9.0397C113.039 10.7386 113.602 12.4476 114.14 14.1667C114.864 12.417 115.428 10.618 115.83 8.76986C116.263 8.76986 116.697 8.76986 117.13 8.76986C117.13 11.1085 117.13 13.4471 117.13 15.7857C116.783 15.7857 116.437 15.7857 116.09 15.7857C116.133 14.4335 116.09 13.0843 115.96 11.7381C115.489 13.0681 115.099 14.4173 114.79 15.7857C114.363 15.8433 113.973 15.7534 113.62 15.5159C113.313 14.331 112.966 13.1617 112.58 12.008C112.45 13.264 112.407 14.5233 112.45 15.7857C112.103 15.7857 111.757 15.7857 111.41 15.7857C111.41 13.4471 111.41 11.1085 111.41 8.76986Z" fill="white"/>
<path opacity="0.628" fill-rule="evenodd" clip-rule="evenodd" d="M122.85 8.76987C123.357 8.69612 123.747 8.87602 124.02 9.30955C124.751 11.4515 125.401 13.6103 125.97 15.7857C124.836 15.6062 124.316 14.8866 124.41 13.627C123.711 13.5827 123.018 13.6277 122.33 13.7619C122.064 14.3209 121.847 14.9055 121.68 15.5159C121.319 15.8002 120.929 15.8452 120.51 15.6508C121.317 13.3642 122.097 11.0705 122.85 8.76987ZM123.11 10.3889C123.414 10.9691 123.674 11.5988 123.89 12.2778C123.457 12.6376 123.023 12.6376 122.59 12.2778C122.87 11.6762 123.043 11.0466 123.11 10.3889Z" fill="white"/>
<path opacity="0.684" fill-rule="evenodd" clip-rule="evenodd" d="M128.57 8.76984C130.303 8.76984 132.037 8.76984 133.77 8.76984C133.77 9.03968 133.77 9.30952 133.77 9.57936C133.077 9.57936 132.383 9.57936 131.69 9.57936C131.69 11.6482 131.69 13.7169 131.69 15.7857C131.343 15.7857 130.997 15.7857 130.65 15.7857C130.65 13.7169 130.65 11.6482 130.65 9.57936C129.957 9.57936 129.263 9.57936 128.57 9.57936C128.57 9.30952 128.57 9.03968 128.57 8.76984Z" fill="white"/>
<path opacity="0.657" fill-rule="evenodd" clip-rule="evenodd" d="M137.15 8.76984C137.497 8.76984 137.843 8.76984 138.19 8.76984C138.19 11.1085 138.19 13.4471 138.19 15.7857C137.843 15.7857 137.497 15.7857 137.15 15.7857C137.15 13.4471 137.15 11.1085 137.15 8.76984Z" fill="white"/>
<path opacity="0.628" fill-rule="evenodd" clip-rule="evenodd" d="M155.87 14.7064C155.87 15.0661 155.87 15.426 155.87 15.7857C155.523 15.7857 155.177 15.7857 154.83 15.7857C154.851 13.8557 153.985 13.2261 152.23 13.8968C151.95 14.4984 151.777 15.1281 151.71 15.7857C151.363 15.7857 151.017 15.7857 150.67 15.7857C151.312 13.4279 152.005 11.0892 152.75 8.76986C153.177 8.71225 153.567 8.80219 153.92 9.0397C154.501 10.9859 155.151 12.8747 155.87 14.7064ZM153.27 10.6588C153.64 11.2023 153.813 11.832 153.79 12.5476C153.443 12.5476 153.097 12.5476 152.75 12.5476C152.819 11.8824 152.993 11.2528 153.27 10.6588Z" fill="white"/>
<path opacity="0.636" fill-rule="evenodd" clip-rule="evenodd" d="M108.81 17.4048C109.509 17.3605 110.202 17.4055 110.89 17.5397C111.338 17.6809 111.685 17.9507 111.93 18.3492C111.724 19.0871 111.378 19.177 110.89 18.6191C110.283 18.4392 109.677 18.4392 109.07 18.6191C108.746 19.0221 108.746 19.4269 109.07 19.8334C110.184 20.2975 111.181 20.9272 112.06 21.7222C112.418 22.921 112.115 23.8655 111.15 24.5556C110.283 24.7355 109.417 24.7355 108.55 24.5556C108.081 24.3837 107.735 24.0689 107.51 23.6111C107.611 23.2819 107.827 23.1021 108.16 23.0714C108.767 23.3413 109.373 23.6111 109.98 23.881C111.22 23.5429 111.437 22.8683 110.63 21.8572C109.513 21.5723 108.603 20.9877 107.9 20.1032C107.531 18.9111 107.834 18.0116 108.81 17.4048Z" fill="white"/>
<path opacity="0.63" fill-rule="evenodd" clip-rule="evenodd" d="M58.89 17.6746C59.2366 17.6746 59.5834 17.6746 59.93 17.6746C59.93 19.6534 59.93 21.6323 59.93 23.6111C60.8834 23.6111 61.8366 23.6111 62.79 23.6111C62.79 23.9709 62.79 24.3307 62.79 24.6905C61.49 24.6905 60.19 24.6905 58.89 24.6905C58.89 22.3519 58.89 20.0133 58.89 17.6746Z" fill="white"/>
<path opacity="0.656" fill-rule="evenodd" clip-rule="evenodd" d="M65.65 17.6746C65.9966 17.6746 66.3434 17.6746 66.69 17.6746C66.69 20.0133 66.69 22.3519 66.69 24.6905C66.3434 24.6905 65.9966 24.6905 65.65 24.6905C65.65 22.3519 65.65 20.0133 65.65 17.6746Z" fill="white"/>
<path opacity="0.668" fill-rule="evenodd" clip-rule="evenodd" d="M70.0701 17.6746C71.2 17.6299 72.3266 17.6749 73.4501 17.8095C74.4867 18.8115 74.4867 19.8009 73.4501 20.7778C74.7126 21.8541 74.7992 23.0234 73.7101 24.2857C72.5229 24.639 71.3095 24.7739 70.0701 24.6905C70.0701 22.3519 70.0701 20.0132 70.0701 17.6746ZM71.1101 18.4841C71.6371 18.4404 72.1571 18.4854 72.6701 18.6191C73.3286 19.1361 73.3286 19.6758 72.6701 20.2381C72.1667 20.4575 71.6467 20.5924 71.1101 20.6429C71.1101 19.9233 71.1101 19.2037 71.1101 18.4841ZM71.1101 21.4524C72.9217 21.0399 73.6152 21.7145 73.1901 23.4762C72.5237 23.7674 71.8305 23.9024 71.1101 23.881C71.1101 23.0714 71.1101 22.2619 71.1101 21.4524Z" fill="white"/>
<path opacity="0.688" fill-rule="evenodd" clip-rule="evenodd" d="M77.87 17.6746C79.0834 17.6746 80.2966 17.6746 81.51 17.6746C81.51 17.9445 81.51 18.2143 81.51 18.4841C80.5566 18.4841 79.6034 18.4841 78.65 18.4841C78.65 19.1138 78.65 19.7434 78.65 20.373C79.43 20.373 80.21 20.373 80.99 20.373C80.99 20.7328 80.99 21.0926 80.99 21.4524C80.21 21.4524 79.43 21.4524 78.65 21.4524C78.65 22.172 78.65 22.8915 78.65 23.6111C79.69 23.6111 80.73 23.6111 81.77 23.6111C81.77 23.9709 81.77 24.3307 81.77 24.6905C80.47 24.6905 79.17 24.6905 77.87 24.6905C77.87 22.3519 77.87 20.0133 77.87 17.6746Z" fill="white"/>
<path opacity="0.732" fill-rule="evenodd" clip-rule="evenodd" d="M84.89 17.6746C85.9337 17.6299 86.9737 17.6749 88.01 17.8095C89.4229 19.1516 89.3363 20.4109 87.75 21.5873C88.4479 22.5415 88.9679 23.5759 89.31 24.6905C88.953 24.7327 88.6062 24.6878 88.27 24.5555C87.7934 23.701 87.3166 22.8466 86.84 21.992C86.4875 21.7545 86.0975 21.6646 85.67 21.7222C85.67 22.7116 85.67 23.701 85.67 24.6905C85.41 24.6905 85.15 24.6905 84.89 24.6905C84.89 22.3518 84.89 20.0132 84.89 17.6746ZM85.67 18.4841C86.7321 18.2571 87.5121 18.6169 88.01 19.5635C87.5852 20.6392 86.8052 21.0889 85.67 20.9127C85.67 20.1032 85.67 19.2936 85.67 18.4841Z" fill="white"/>
<path opacity="0.655" fill-rule="evenodd" clip-rule="evenodd" d="M93.99 17.6746C94.4973 17.6008 94.8873 17.7807 95.16 18.2143C95.8904 20.3533 96.5404 22.5121 97.11 24.6905C96.7257 24.7612 96.3792 24.6712 96.07 24.4206C95.8342 23.7307 95.5742 23.0561 95.29 22.3968C94.6655 22.1771 94.0589 22.2221 93.47 22.5317C93.2342 23.2216 92.9742 23.8962 92.69 24.5555C92.3434 24.7354 91.9966 24.7354 91.65 24.5555C92.4565 22.2689 93.2365 19.9753 93.99 17.6746ZM94.25 19.2936C94.7094 19.912 94.9694 20.6316 95.03 21.4524C94.5651 21.5293 94.1317 21.4394 93.73 21.1825C94.01 20.5809 94.1835 19.9513 94.25 19.2936Z" fill="white"/>
<path opacity="0.642" fill-rule="evenodd" clip-rule="evenodd" d="M116.87 17.6746C117.303 17.6746 117.737 17.6746 118.17 17.6746C118.757 19.953 119.451 22.2017 120.25 24.4207C119.848 24.6775 119.415 24.7675 118.95 24.6905C118.859 23.9517 118.685 23.2322 118.43 22.5318C117.758 22.2673 117.064 22.1774 116.35 22.2619C116.259 23.0007 116.085 23.7203 115.83 24.4207C115.521 24.6713 115.174 24.7612 114.79 24.6905C115.535 22.3711 116.228 20.0325 116.87 17.6746ZM117.39 19.2937C117.707 19.9219 117.967 20.5965 118.17 21.3175C117.745 21.4506 117.312 21.4956 116.87 21.4524C116.99 20.7182 117.164 19.9986 117.39 19.2937Z" fill="white"/>
<path opacity="0.663" fill-rule="evenodd" clip-rule="evenodd" d="M123.11 17.6746C123.537 17.617 123.927 17.7069 124.28 17.9444C125.081 19.5179 125.948 21.047 126.88 22.5317C127.01 20.9152 127.053 19.2961 127.01 17.6746C127.357 17.6746 127.703 17.6746 128.05 17.6746C128.05 20.0132 128.05 22.3518 128.05 24.6905C127.623 24.7481 127.233 24.6581 126.88 24.4206C126.013 22.9815 125.147 21.5423 124.28 20.1032C124.15 21.6296 124.107 23.1587 124.15 24.6905C123.803 24.6905 123.457 24.6905 123.11 24.6905C123.11 22.3518 123.11 20.0132 123.11 17.6746Z" fill="white"/>
<path opacity="0.663" fill-rule="evenodd" clip-rule="evenodd" d="M131.43 17.6746C131.857 17.617 132.247 17.7069 132.6 17.9444C133.401 19.5179 134.268 21.047 135.2 22.5317C135.33 20.9152 135.373 19.2961 135.33 17.6746C135.677 17.6746 136.023 17.6746 136.37 17.6746C136.37 20.0132 136.37 22.3518 136.37 24.6905C135.943 24.7481 135.553 24.6581 135.2 24.4206C134.333 22.9815 133.467 21.5423 132.6 20.1032C132.47 21.6296 132.427 23.1587 132.47 24.6905C132.123 24.6905 131.777 24.6905 131.43 24.6905C131.43 22.3518 131.43 20.0132 131.43 17.6746Z" fill="white"/>
<path opacity="0.876" fill-rule="evenodd" clip-rule="evenodd" d="M139.75 17.6746C140.01 17.6746 140.27 17.6746 140.53 17.6746C140.53 20.0133 140.53 22.3519 140.53 24.6905C140.27 24.6905 140.01 24.6905 139.75 24.6905C139.75 22.3519 139.75 20.0133 139.75 17.6746Z" fill="white"/>
<path opacity="0.697" fill-rule="evenodd" clip-rule="evenodd" d="M143.65 17.6746C145.297 17.6746 146.943 17.6746 148.59 17.6746C148.59 17.9445 148.59 18.2143 148.59 18.4841C147.897 18.4841 147.203 18.4841 146.51 18.4841C146.51 20.5529 146.51 22.6217 146.51 24.6905C146.163 24.6905 145.817 24.6905 145.47 24.6905C145.47 22.6217 145.47 20.5529 145.47 18.4841C144.863 18.4841 144.257 18.4841 143.65 18.4841C143.65 18.2143 143.65 17.9445 143.65 17.6746Z" fill="white"/>
<path opacity="0.654" fill-rule="evenodd" clip-rule="evenodd" d="M155.87 23.6111C155.87 23.9709 155.87 24.3307 155.87 24.6905C155.523 24.6905 155.177 24.6905 154.83 24.6905C154.657 23.881 154.483 23.0715 154.31 22.2619C153.617 22.2619 152.923 22.2619 152.23 22.2619C152.057 23.0715 151.883 23.881 151.71 24.6905C151.363 24.6905 151.017 24.6905 150.67 24.6905C151.24 22.5121 151.89 20.3534 152.62 18.2143C152.961 17.6321 153.394 17.5422 153.92 17.9445C154.501 19.8906 155.151 21.7795 155.87 23.6111ZM153.01 19.5635C153.52 20.0004 153.866 20.5851 154.05 21.3175C153.625 21.4507 153.192 21.4956 152.75 21.4524C152.795 20.8153 152.882 20.1857 153.01 19.5635Z" fill="white"/>
<path opacity="0.953" fill-rule="evenodd" clip-rule="evenodd" d="M38.87 19.0238C44.4166 19.0238 49.9634 19.0238 55.51 19.0238C55.51 23.8809 55.51 28.7381 55.51 33.5952C49.8766 33.5952 44.2434 33.5952 38.61 33.5952C38.61 31.8863 38.61 30.1772 38.61 28.4682C42.0766 28.4682 45.5434 28.4682 49.01 28.4682C49.01 27.0292 49.01 25.5899 49.01 24.1508C45.63 24.1508 42.25 24.1508 38.87 24.1508C38.87 22.4418 38.87 20.7328 38.87 19.0238Z" fill="white"/>
<path opacity="0.699" fill-rule="evenodd" clip-rule="evenodd" d="M129.87 33.8651C129.177 33.8651 128.483 33.8651 127.79 33.8651C127.19 33.4665 126.714 32.9268 126.36 32.246C126.23 30.2692 126.187 28.2904 126.23 26.3095C126.49 26.3095 126.75 26.3095 127.01 26.3095C126.967 28.0208 127.01 29.7297 127.14 31.4365C127.787 33.1673 128.784 33.4371 130.13 32.246C130.286 31.8966 130.416 31.5369 130.52 31.1667C130.65 29.55 130.693 27.931 130.65 26.3095C130.91 26.3095 131.17 26.3095 131.43 26.3095C131.534 28.4912 131.404 30.6499 131.04 32.7857C130.677 33.2094 130.287 33.5693 129.87 33.8651Z" fill="white"/>
<path opacity="0.663" fill-rule="evenodd" clip-rule="evenodd" d="M63.05 33.8651C62.1834 33.8651 61.3166 33.8651 60.45 33.8651C59.2402 33.0645 58.6334 31.8952 58.63 30.3571C58.9048 27.2923 60.4648 26.168 63.31 26.9841C64.7824 28.465 65.1724 30.219 64.48 32.246C64.1264 32.9268 63.6498 33.4665 63.05 33.8651ZM60.97 27.6587C62.7562 27.4877 63.7096 28.3422 63.83 30.2222C63.7871 31.7147 63.0937 32.6592 61.75 33.0556C60.4032 32.6489 59.7098 31.7045 59.67 30.2222C59.8658 29.2311 60.2992 28.3765 60.97 27.6587Z" fill="white"/>
<path opacity="0.605" fill-rule="evenodd" clip-rule="evenodd" d="M108.29 33.8651C106.99 33.8651 105.69 33.8651 104.39 33.8651C104.095 31.5477 104.052 29.209 104.26 26.8492C104.523 26.6235 104.826 26.5335 105.17 26.5794C105.17 28.6482 105.17 30.7168 105.17 32.7857C106.21 32.7857 107.25 32.7857 108.29 32.7857C108.29 33.1454 108.29 33.5054 108.29 33.8651Z" fill="white"/>
<path opacity="0.638" fill-rule="evenodd" clip-rule="evenodd" d="M155.87 30.8968C155.87 31.4365 155.87 31.9762 155.87 32.5159C155.523 33.0556 155.09 33.5054 154.57 33.8651C153.877 33.8651 153.183 33.8651 152.49 33.8651C152.017 33.5726 151.584 33.2126 151.19 32.7857C151.358 32.4765 151.574 32.2066 151.84 31.9762C152.53 32.7031 153.353 32.9279 154.31 32.6508C155.003 32.1111 155.003 31.5714 154.31 31.0317C153.306 30.7131 152.396 30.2184 151.58 29.5476C150.988 28.4178 151.205 27.4733 152.23 26.7143C153.491 26.3749 154.618 26.5998 155.61 27.3889C155.442 27.6981 155.226 27.968 154.96 28.1984C153.975 27.0734 153.065 27.1185 152.23 28.3333C153.415 29.2605 154.628 30.1151 155.87 30.8968Z" fill="white"/>
<path opacity="0.648" fill-rule="evenodd" clip-rule="evenodd" d="M85.15 33.8651C84.8034 33.8651 84.4565 33.8651 84.11 33.8651C83.0687 32.1961 82.0721 30.4872 81.12 28.7381C80.99 30.4449 80.9468 32.1538 80.99 33.8651C80.6434 33.8651 80.2965 33.8651 79.95 33.8651C79.95 31.5264 79.95 29.1879 79.95 26.8492C80.4148 26.7723 80.8483 26.8622 81.25 27.1191C82.16 28.6482 83.07 30.1772 83.98 31.7064C84.1097 30.0897 84.1531 28.4707 84.11 26.8492C84.4565 26.8492 84.8034 26.8492 85.15 26.8492C85.15 29.1879 85.15 31.5264 85.15 33.8651Z" fill="white"/>
</g>
<defs>
<clipPath id="clip0_12_3">
<rect width="156" height="34" fill="white"/>
</clipPath>
</defs>
</svg>
