<svg width="21" height="39" viewBox="0 0 21 39" fill="none" xmlns="http://www.w3.org/2000/svg">
<path d="M13.8823 8.17914L13.8825 8.25211C13.8869 9.5734 13.4737 10.8626 12.7017 11.936C11.9297 13.0094 10.8384 13.8122 9.58323 14.23C8.32808 14.6478 6.97316 14.6593 5.71157 14.2628C4.44998 13.8663 3.3461 13.0821 2.55724 12.022C2.24548 11.6051 1.98773 11.1506 1.79011 10.6691C1.43698 9.81511 1.27705 8.89361 1.32175 7.97046C1.36644 7.04731 1.61465 6.14529 2.04865 5.32881C2.48265 4.51234 3.09173 3.80155 3.83239 3.24723C4.57305 2.6929 5.42702 2.30871 6.3333 2.12209C7.23959 1.93547 8.17585 1.95103 9.07518 2.16765C9.97452 2.38427 10.8148 2.79661 11.5359 3.37522C12.257 3.95383 12.8413 4.68443 13.2469 5.51486C13.6525 6.34528 13.8695 7.25504 13.8823 8.17914Z" fill="#FE9920"/>
<path d="M13.8822 8.17917C10.1963 9.70891 6.41297 10.9927 2.55714 12.022C2.24538 11.6052 1.98763 11.1506 1.79001 10.6692C5.86898 9.70746 9.84617 8.35634 13.6667 6.63448C13.8027 7.13836 13.8751 7.65728 13.8822 8.17917Z" fill="#E6E6E6"/>
<path d="M18.5573 32.7545L12.5801 12.0516L5.79378 14.3401L14.0281 34.3529C14.1696 34.7094 14.4452 34.9963 14.796 35.1522C15.1467 35.3081 15.5446 35.3207 15.9047 35.1873L16.1427 35.0991L16.3779 35.9111C16.4068 36.0108 16.4563 36.1033 16.5232 36.1826C16.5901 36.2619 16.6729 36.3263 16.7663 36.3717C16.8597 36.417 16.9616 36.4422 17.0655 36.4457C17.1693 36.4492 17.2727 36.431 17.369 36.3921L17.4025 36.3785C17.5806 36.3065 17.7239 36.1685 17.8023 35.9933C17.8807 35.8181 17.888 35.6194 17.8228 35.439L17.5161 34.5901L17.6557 34.5383C18.0036 34.4094 18.2898 34.1539 18.457 33.8231C18.6243 33.4922 18.6601 33.1105 18.5573 32.7545Z" fill="#3F3D56"/>
<path d="M11.6369 22.1719C11.5416 22.1723 11.4488 22.1418 11.3726 22.0848C11.2963 22.0278 11.2407 21.9475 11.2143 21.8561L10.7837 20.3694C10.7547 20.268 10.7632 20.1596 10.8076 20.0639C10.852 19.9681 10.9293 19.8915 11.0255 19.848L11.8192 19.492C11.8742 19.4673 11.9338 19.4542 11.9941 19.4536C12.0545 19.453 12.1143 19.4648 12.1698 19.4883C12.2254 19.5118 12.2754 19.5466 12.3169 19.5903C12.3584 19.6341 12.3903 19.6859 12.4108 19.7426L12.9456 21.2226C12.9845 21.3291 12.9803 21.4465 12.934 21.5501C12.8877 21.6536 12.8029 21.7351 12.6975 21.7773L11.7995 22.1401C11.7478 22.1609 11.6926 22.1717 11.6369 22.1719ZM11.9981 19.7454C11.9776 19.7455 11.9574 19.7499 11.9388 19.7583L11.145 20.1143C11.1129 20.1288 11.0871 20.1543 11.0723 20.1862C11.0575 20.2181 11.0547 20.2543 11.0644 20.2881L11.495 21.7747C11.5007 21.7944 11.5104 21.8126 11.5236 21.8282C11.5367 21.8438 11.5531 21.8565 11.5715 21.8654C11.5898 21.8743 11.6099 21.8793 11.6303 21.88C11.6508 21.8807 11.6712 21.8771 11.6901 21.8694L12.588 21.5066C12.6231 21.4926 12.6514 21.4654 12.6669 21.4309C12.6823 21.3964 12.6837 21.3573 12.6707 21.3218L12.1359 19.8418C12.1292 19.8229 12.1186 19.8056 12.1048 19.791C12.0909 19.7764 12.0742 19.7648 12.0557 19.7571C12.0375 19.7493 12.0179 19.7453 11.9981 19.7454Z" fill="#E6E6E6"/>
</svg>
