<svg width="30" height="30" viewBox="0 0 30 30" fill="none" xmlns="http://www.w3.org/2000/svg">
<path d="M12.8125 20.3125C12.6866 20.3083 12.5629 20.2784 12.449 20.2246C12.3351 20.1709 12.2334 20.0945 12.15 20C11.9745 19.8243 11.8758 19.586 11.8758 19.3375C11.8758 19.0891 11.9745 18.8508 12.15 18.675L15.9 14.925L12.15 11.175C12.0759 10.995 12.0596 10.7964 12.1035 10.6067C12.1473 10.417 12.2492 10.2457 12.3948 10.1165C12.5405 9.98735 12.7228 9.90673 12.9164 9.88585C13.1099 9.86498 13.3051 9.90489 13.475 10L17.85 14.375C18.0256 14.5509 18.1243 14.7891 18.1243 15.0375C18.1243 15.286 18.0256 15.5243 17.85 15.7L13.475 20C13.3916 20.0945 13.2899 20.1709 13.176 20.2246C13.0621 20.2784 12.9384 20.3083 12.8125 20.3125Z" fill="#FE9920"/>
</svg>
