<svg width="304" height="304" viewBox="0 0 304 304" fill="none" xmlns="http://www.w3.org/2000/svg">
<path d="M110.479 288.269L113.555 299.094C118.462 300.371 123.43 301.403 128.44 302.183H128.445C131.952 302.727 135.494 303.152 139.071 303.456L129.065 289.16L127.644 289.034L110.479 288.269Z" fill="#2F2E41"/>
<path d="M33.1477 246.757C36.2417 250.638 39.52 254.359 42.9827 257.919L54.8459 257.928L118.645 258L130.131 258.013L137.767 258.022L149.126 258.031L157.864 258.04L174.004 258.058L183.524 258.072L203.572 258.09L213.142 258.103L239.661 258.13L256.318 258.148L260.788 258.153C261.782 257.136 262.761 256.105 263.724 255.059C266.126 252.455 268.436 249.77 270.654 247.005L261.4 246.996L255.095 246.991L240.497 246.973L212.328 246.946L202.808 246.937L198.958 246.933H198.945L195.923 246.928L194.569 246.924L191.102 246.919H189.636L179.356 246.91L157.181 246.883L147.422 246.874L138.077 246.865L129.317 246.856L116.748 246.843L49.6159 246.775L33.1477 246.757Z" fill="#CCCCCC"/>
<path d="M194.263 254.222C189.263 254.222 185.21 252.928 185.21 251.332C185.21 249.736 189.263 248.443 194.263 248.443C199.263 248.443 203.317 249.736 203.317 251.332C203.317 252.928 199.263 254.222 194.263 254.222Z" fill="#3F3D56"/>
<path d="M194.263 252.295C189.263 252.295 185.21 251.002 185.21 249.406C185.21 247.81 189.263 246.516 194.263 246.516C199.263 246.516 203.317 247.81 203.317 249.406C203.317 251.002 199.263 252.295 194.263 252.295Z" fill="#3F3D56"/>
<path d="M195.855 251.342L194.506 251.322L194.878 226.13C194.932 222.02 193.907 217.967 191.905 214.377C189.903 210.786 186.995 207.784 183.47 205.669L157.72 190.277L158.412 189.119L184.162 204.511C187.89 206.748 190.966 209.923 193.083 213.72C195.2 217.517 196.285 221.803 196.227 226.15L195.855 251.342Z" fill="#3F3D56"/>
<path d="M161.663 198.359C161.663 200.168 160.197 201.634 158.388 201.634C156.58 201.634 155.114 200.168 155.114 198.359V177.94C155.114 176.132 156.58 174.666 158.388 174.666C160.197 174.666 161.663 176.132 161.663 177.94V198.359Z" fill="#FE9920"/>
<path d="M158.503 142.594L123.19 184.324L93.0817 197.212L85.0568 181.613C92.419 172.853 116.441 162.339 116.441 162.339L149.06 133.082C149.118 132.867 149.181 132.652 149.259 132.439C149.717 131.187 150.49 130.074 151.503 129.208C152.516 128.342 153.735 127.752 155.043 127.495C156.351 127.238 157.703 127.322 158.969 127.741C160.235 128.159 161.371 128.896 162.268 129.882C163.165 130.868 163.793 132.068 164.091 133.368C164.388 134.667 164.346 136.021 163.967 137.299C163.589 138.577 162.887 139.736 161.93 140.663C160.972 141.591 159.792 142.256 158.503 142.594Z" fill="#A0616A"/>
<path d="M88.2036 176.872L95.9927 196.814L95.985 196.891C95.2085 204.553 83.2394 211.647 73.3353 216.249C70.0683 217.764 66.3481 217.981 62.9267 216.858C59.5053 215.735 56.638 213.354 54.9044 210.198C53.6414 207.861 53.0572 205.217 53.2179 202.566C53.3786 199.914 54.2779 197.36 55.814 195.193L63.6777 184.181L88.2036 176.872Z" fill="#FE9920"/>
<path d="M43.0546 214.639L47.1964 229.547L49.6158 246.775L50.3623 252.073L50.3803 252.185L54.9808 256.556L54.8459 257.928L54.4861 261.584L53.888 268.096C75.1289 286.101 100.926 297.897 128.44 302.183C128.444 302.188 128.444 302.183 128.444 302.183C132.119 301.131 135.001 299.989 136.161 299.157C136.62 298.833 136.827 298.545 136.818 298.253C136.768 296.306 131.242 289.317 130.405 288.269L128.211 279.185L123.732 277.404L124.838 271.014L118.848 264.691L118.677 258.184L118.645 258L116.748 246.843L112.961 224.623L112.574 222.347L112.925 204.8L113.029 199.484L113.15 193.422C113.182 191.863 113.068 190.305 112.808 188.768C112.616 187.61 112.34 186.468 111.981 185.35C110.983 182.238 109.381 179.354 107.266 176.862C105.152 174.37 102.567 172.32 99.6589 170.829C99.4296 170.712 99.2002 170.6 98.9664 170.487C98.9664 170.487 98.9664 170.483 98.9619 170.487C97.163 169.637 95.268 169.007 93.3181 168.612L92.7515 167.605L87.2021 157.747L70.1943 158.183L60.049 174.062L51.5811 182.467C47.4339 186.592 44.4585 191.745 42.9601 197.398C41.4618 203.052 41.4944 209.002 43.0546 214.639Z" fill="#FE9920"/>
<path d="M80.1825 152.878C67.7385 152.878 57.6507 142.791 57.6507 130.347C57.6507 117.903 67.7385 107.815 80.1825 107.815C92.6265 107.815 102.714 117.903 102.714 130.347C102.714 142.791 92.6265 152.878 80.1825 152.878Z" fill="#A0616A"/>
<path d="M82.9312 153.18C79.442 153.234 75.9545 152.991 72.5068 152.451C69.0894 151.756 61.4443 146.154 59.3131 142.783C57.7297 140.278 56.7172 136.367 56.1465 133.527C55.3779 129.768 55.4072 125.89 56.2325 122.144C57.0579 118.398 58.6608 114.867 60.9375 111.78C61.8126 110.488 63.0203 109.457 64.4331 108.796C64.5584 108.747 64.6872 108.704 64.8174 108.667C66.8761 108.125 68.7258 106.98 70.1292 105.38C70.4014 105.056 70.6965 104.752 71.0123 104.471C72.5984 103.132 74.4789 102.188 76.4999 101.716C79.762 100.843 84.483 101.709 90.5315 104.294C93.5702 105.593 96.8935 105.123 99.4501 104.568C99.5935 104.54 99.7417 104.551 99.8799 104.598C100.018 104.645 100.141 104.728 100.238 104.838C101.325 105.859 102.759 106.431 104.251 106.438C105.165 106.478 106.124 107.743 107.283 109.393C107.546 109.768 107.852 110.205 108.074 110.471L108.103 109.96L108.62 110.53C109.433 111.425 110.005 112.512 110.285 113.688C110.564 114.865 110.542 116.093 110.219 117.258C109.896 118.424 109.283 119.488 108.438 120.353C107.593 121.218 106.543 121.855 105.385 122.204C104.466 122.449 103.524 122.599 102.574 122.652C101.999 122.704 101.404 122.758 100.834 122.857C99.0037 123.231 97.302 124.074 95.8948 125.303C94.4877 126.532 93.4232 128.105 92.8053 129.868C92.6592 130.275 92.4214 130.644 92.1103 130.945C91.7992 131.246 91.423 131.471 91.0109 131.604C90.5988 131.736 90.1617 131.772 89.7334 131.709C89.3051 131.646 88.8971 131.485 88.5408 131.239C87.9468 130.777 87.2497 130.465 86.509 130.33C85.7683 130.195 85.006 130.241 84.2871 130.465C83.6658 130.81 83.1821 131.359 82.9173 132.018C82.5954 132.753 82.0619 133.376 81.3848 133.806C79.069 135 78.9093 140.29 79.7411 144.699C80.5428 148.949 82.1277 152.024 83.595 152.176C84.7247 152.293 84.8539 152.373 84.9357 152.573L85.0087 152.752L84.8819 152.919C84.258 153.145 83.5926 153.234 82.9312 153.18Z" fill="#2F2E41"/>
<path d="M97.5259 215.464L106.214 198.144C118.824 199.005 143.851 213.585 143.851 213.585L191.205 223.625C192.607 223.086 194.127 222.926 195.612 223.161C197.096 223.396 198.493 224.018 199.66 224.964C200.828 225.91 201.726 227.147 202.263 228.55C202.801 229.954 202.959 231.474 202.722 232.958C202.485 234.442 201.862 235.838 200.914 237.004C199.967 238.171 198.729 239.067 197.325 239.603C195.92 240.139 194.4 240.295 192.916 240.057C191.432 239.818 190.038 239.193 188.872 238.244L128.636 233.926L97.5259 215.464Z" fill="#A0616A"/>
<path d="M101.03 218.308L78.3405 201.447L74.3439 187.044C73.5696 184.214 73.6023 181.223 74.4384 178.41C75.2745 175.598 76.8807 173.075 79.0753 171.127C82.0681 168.507 85.9442 167.121 89.92 167.249C93.8957 167.377 97.6744 169.01 100.492 171.818C109.03 180.341 118.769 192.23 116.677 200.475L116.656 200.558L101.03 218.308Z" fill="#FE9920"/>
</svg>
