<svg width="30" height="33" viewBox="0 0 30 33" fill="none" xmlns="http://www.w3.org/2000/svg">
<path d="M16.3794 0.21812L1.12082 8.22106C0.0354846 8.79031 -0.324033 10.3002 0.319421 11.5869L10.2684 31.4808C10.9118 32.7675 12.3183 33.3511 13.4036 32.7819L28.6622 24.7789C29.7476 24.2097 30.1071 22.6998 29.4637 21.4131L19.5147 1.51917C18.8713 0.232505 17.4648 -0.351135 16.3794 0.21812Z" fill="#E6E6E6"/>
<path d="M13.7724 3.89714L3.40549 9.33444C2.38899 9.86758 2.05222 11.2817 2.65485 12.4867L10.9203 29.0143C11.5229 30.2193 12.8402 30.7658 13.8567 30.2327L26.3778 23.6655C27.3943 23.1324 27.7309 21.7184 27.1283 20.5133L22.6381 11.5347C19.9538 6.1672 18.3002 1.52236 13.7724 3.89714Z" fill="white"/>
<path d="M18.898 12.9228L9.71577 17.7388C9.60349 17.8208 9.52375 17.9413 9.49108 18.0785C9.45842 18.2156 9.47503 18.3602 9.53787 18.4859C9.60071 18.6116 9.7056 18.7099 9.83336 18.7629C9.96113 18.8159 10.1033 18.8201 10.2338 18.7747L19.4161 13.9587C19.5283 13.8768 19.6081 13.7562 19.6407 13.619C19.6734 13.4819 19.6568 13.3373 19.594 13.2116C19.5311 13.0859 19.4262 12.9876 19.2985 12.9346C19.1707 12.8816 19.0286 12.8774 18.898 12.9228Z" fill="#FE9920"/>
<path d="M10.7878 14.5932L8.69233 15.6923C8.58005 15.7742 8.5003 15.8948 8.46764 16.0319C8.43498 16.1691 8.4516 16.3137 8.51444 16.4394C8.57728 16.565 8.68217 16.6633 8.80994 16.7164C8.93771 16.7694 9.07984 16.7736 9.21037 16.7282L11.3059 15.6291C11.4181 15.5472 11.4979 15.4266 11.5305 15.2894C11.5632 15.1523 11.5466 15.0077 11.4837 14.882C11.4209 14.7563 11.316 14.658 11.1882 14.605C11.0605 14.552 10.9183 14.5478 10.7878 14.5932Z" fill="#FE9920"/>
<path d="M13.4756 10.6001L7.66876 13.6457C7.55649 13.7277 7.47674 13.8482 7.44408 13.9854C7.41142 14.1225 7.42803 14.2672 7.49087 14.3928C7.55372 14.5185 7.6586 14.6168 7.78637 14.6698C7.91414 14.7228 8.05627 14.727 8.18681 14.6816L13.9937 11.636C14.1059 11.5541 14.1857 11.4335 14.2183 11.2963C14.251 11.1592 14.2344 11.0146 14.1715 10.8889C14.1087 10.7632 14.0038 10.6649 13.876 10.6119C13.7483 10.5589 13.6061 10.5547 13.4756 10.6001Z" fill="#FE9920"/>
<path d="M22.5316 20.1887L13.3493 25.0047C13.237 25.0866 13.1573 25.2072 13.1246 25.3443C13.092 25.4815 13.1086 25.6261 13.1714 25.7518C13.2343 25.8774 13.3391 25.9757 13.4669 26.0288C13.5947 26.0818 13.7368 26.0859 13.8673 26.0405L23.0496 21.2246C23.1619 21.1426 23.2416 21.0221 23.2743 20.8849C23.307 20.7478 23.2903 20.6031 23.2275 20.4775C23.1647 20.3518 23.0598 20.2535 22.932 20.2005C22.8042 20.1475 22.6621 20.1433 22.5316 20.1887Z" fill="#FE9920"/>
<path d="M14.4214 21.8591L12.3259 22.9581C12.2136 23.0401 12.1338 23.1606 12.1012 23.2978C12.0685 23.435 12.0851 23.5796 12.148 23.7052C12.2108 23.8309 12.3157 23.9292 12.4435 23.9822C12.5713 24.0353 12.7134 24.0394 12.8439 23.994L14.9394 22.895C15.0517 22.813 15.1314 22.6925 15.1641 22.5553C15.1967 22.4181 15.1801 22.2735 15.1173 22.1479C15.0544 22.0222 14.9496 21.9239 14.8218 21.8709C14.694 21.8178 14.5519 21.8137 14.4214 21.8591Z" fill="#FE9920"/>
<path d="M17.1093 17.866L11.3024 20.9116C11.1902 20.9935 11.1104 21.1141 11.0778 21.2513C11.0451 21.3884 11.0617 21.533 11.1245 21.6587C11.1874 21.7844 11.2923 21.8827 11.42 21.9357C11.5478 21.9887 11.6899 21.9929 11.8205 21.9475L17.6273 18.9019C17.7396 18.8199 17.8193 18.6994 17.852 18.5622C17.8847 18.4251 17.8681 18.2804 17.8052 18.1548C17.7424 18.0291 17.6375 17.9308 17.5097 17.8778C17.3819 17.8247 17.2398 17.8206 17.1093 17.866Z" fill="#FE9920"/>
</svg>
